M48
; DRILL file {KiCad 7.0.5} date Sun Jan 14 18:07:24 2024
; FORMAT={-:-/ absolute / metric / decimal}
; #@! TF.CreationDate,2024-01-14T18:07:24+01:00
; #@! TF.GenerationSoftware,Kicad,Pcbnew,7.0.5
; #@! TF.FileFunction,Plated,1,2,PTH
FMAT,2
METRIC
; #@! TA.AperFunction,Plated,PTH,ViaDrill
T1C0.400
; #@! TA.AperFunction,Plated,PTH,ComponentDrill
T2C0.800
; #@! TA.AperFunction,Plated,PTH,ComponentDrill
T3C1.000
; #@! TA.AperFunction,Plated,PTH,ComponentDrill
T4C1.500
%
G90
G05
T1
X59.461Y-41.478
X63.088Y-49.61
X63.5Y-46.736
X67.8Y-42.7
X68.72Y-45.69
X69.26Y-42.84
X69.71Y-46.28
X72.776Y-49.682
X73.52Y-40.022
X73.639Y-46.526
X75.743Y-42.367
X76.248Y-41.055
X76.276Y-40.056
X78.993Y-40.621
X79.108Y-41.614
X80.62Y-47.574
X83.49Y-46.165
X86.11Y-48.0
T2
X77.444Y-51.875
X79.444Y-51.875
X81.444Y-51.875
T3
X59.792Y-46.838
X59.792Y-49.378
X59.792Y-51.918
X60.144Y-35.748
X60.144Y-38.288
X62.684Y-35.748
X62.684Y-38.288
X65.224Y-35.748
X65.224Y-38.288
X67.764Y-35.748
X67.764Y-38.288
X71.425Y-35.23
X73.965Y-35.23
X76.505Y-35.23
X79.045Y-35.23
X81.585Y-35.23
X86.252Y-43.18
X86.252Y-45.72
T4
X75.344Y-51.875
X83.544Y-51.875
T0
M30
