%TF.GenerationSoftware,KiCad,Pcbnew,7.0.5*%
%TF.CreationDate,2024-01-14T18:06:27+01:00*%
%TF.ProjectId,rc_hotwheels,72635f68-6f74-4776-9865-656c732e6b69,rev?*%
%TF.SameCoordinates,Original*%
%TF.FileFunction,Copper,L1,Top*%
%TF.FilePolarity,Positive*%
%FSLAX46Y46*%
G04 Gerber Fmt 4.6, Leading zero omitted, Abs format (unit mm)*
G04 Created by KiCad (PCBNEW 7.0.5) date 2024-01-14 18:06:27*
%MOMM*%
%LPD*%
G01*
G04 APERTURE LIST*
G04 Aperture macros list*
%AMRoundRect*
0 Rectangle with rounded corners*
0 $1 Rounding radius*
0 $2 $3 $4 $5 $6 $7 $8 $9 X,Y pos of 4 corners*
0 Add a 4 corners polygon primitive as box body*
4,1,4,$2,$3,$4,$5,$6,$7,$8,$9,$2,$3,0*
0 Add four circle primitives for the rounded corners*
1,1,$1+$1,$2,$3*
1,1,$1+$1,$4,$5*
1,1,$1+$1,$6,$7*
1,1,$1+$1,$8,$9*
0 Add four rect primitives between the rounded corners*
20,1,$1+$1,$2,$3,$4,$5,0*
20,1,$1+$1,$4,$5,$6,$7,0*
20,1,$1+$1,$6,$7,$8,$9,0*
20,1,$1+$1,$8,$9,$2,$3,0*%
G04 Aperture macros list end*
%TA.AperFunction,ComponentPad*%
%ADD10R,1.700000X1.700000*%
%TD*%
%TA.AperFunction,ComponentPad*%
%ADD11C,1.700000*%
%TD*%
%TA.AperFunction,SMDPad,CuDef*%
%ADD12RoundRect,0.240000X0.455000X-0.240000X0.455000X0.240000X-0.455000X0.240000X-0.455000X-0.240000X0*%
%TD*%
%TA.AperFunction,SMDPad,CuDef*%
%ADD13RoundRect,0.240000X-0.455000X0.240000X-0.455000X-0.240000X0.455000X-0.240000X0.455000X0.240000X0*%
%TD*%
%TA.AperFunction,SMDPad,CuDef*%
%ADD14RoundRect,0.425000X-0.850000X-0.425000X0.850000X-0.425000X0.850000X0.425000X-0.850000X0.425000X0*%
%TD*%
%TA.AperFunction,SMDPad,CuDef*%
%ADD15RoundRect,0.381000X-0.762000X-0.381000X0.762000X-0.381000X0.762000X0.381000X-0.762000X0.381000X0*%
%TD*%
%TA.AperFunction,SMDPad,CuDef*%
%ADD16R,0.700000X1.350000*%
%TD*%
%TA.AperFunction,SMDPad,CuDef*%
%ADD17R,1.475000X0.450000*%
%TD*%
%TA.AperFunction,SMDPad,CuDef*%
%ADD18R,1.200000X0.600000*%
%TD*%
%TA.AperFunction,ComponentPad*%
%ADD19C,1.300000*%
%TD*%
%TA.AperFunction,ComponentPad*%
%ADD20C,2.250000*%
%TD*%
%TA.AperFunction,ViaPad*%
%ADD21C,0.800000*%
%TD*%
%TA.AperFunction,Conductor*%
%ADD22C,0.400000*%
%TD*%
%TA.AperFunction,Conductor*%
%ADD23C,0.200000*%
%TD*%
%TA.AperFunction,Conductor*%
%ADD24C,0.250000*%
%TD*%
G04 APERTURE END LIST*
D10*
%TO.P,ST,1*%
%TO.N,GND*%
X81584800Y-35229800D03*
D11*
%TO.P,ST,2*%
%TO.N,RST*%
X79044800Y-35229800D03*
%TO.P,ST,3*%
%TO.N,VR_OUT*%
X76504800Y-35229800D03*
%TO.P,ST,4*%
%TO.N,SYS_SWCLK*%
X73964800Y-35229800D03*
%TO.P,ST,5*%
%TO.N,SYS_SWDIO*%
X71424800Y-35229800D03*
%TD*%
D12*
%TO.P,C6,1,1*%
%TO.N,VR_OUT*%
X76758800Y-45333400D03*
%TO.P,C6,2,2*%
%TO.N,GND*%
X76758800Y-43713400D03*
%TD*%
%TO.P,C5,1,1*%
%TO.N,VR_OUT*%
X61645800Y-43885600D03*
%TO.P,C5,2,2*%
%TO.N,GND*%
X61645800Y-42265600D03*
%TD*%
D13*
%TO.P,C1,1,1*%
%TO.N,GND*%
X70942200Y-50038000D03*
%TO.P,C1,2,2*%
%TO.N,VCC*%
X70942200Y-51658000D03*
%TD*%
D11*
%TO.P,SM1,1,PWM*%
%TO.N,PWM*%
X59791600Y-46837600D03*
%TO.P,SM1,2,+*%
%TO.N,VCC*%
X59791600Y-49377600D03*
D10*
%TO.P,SM1,3,-*%
%TO.N,GND*%
X59791600Y-51917600D03*
%TD*%
D13*
%TO.P,C2,1,1*%
%TO.N,GND*%
X64490600Y-49606200D03*
%TO.P,C2,2,2*%
%TO.N,VR_OUT*%
X64490600Y-51226200D03*
%TD*%
D14*
%TO.P,M1,1*%
%TO.N,Motor -*%
X85852000Y-40132000D03*
%TO.P,M1,2*%
%TO.N,Motor +*%
X85852000Y-37084000D03*
%TD*%
D11*
%TO.P,BT1,1,+*%
%TO.N,Net-(BT1-+)*%
X86251605Y-45720000D03*
%TO.P,BT1,2,-*%
%TO.N,GND*%
X86251605Y-43180000D03*
%TD*%
D10*
%TO.P,U3,1,GND*%
%TO.N,GND*%
X60143920Y-38287797D03*
D11*
%TO.P,U3,2,VCC*%
%TO.N,VR_OUT*%
X60143920Y-35747797D03*
%TO.P,U3,3,CE*%
%TO.N,GND*%
X62683920Y-38287797D03*
%TO.P,U3,4,~{CSN}*%
X62683920Y-35747797D03*
%TO.P,U3,5,SCK*%
%TO.N,SCK*%
X65223920Y-38287797D03*
%TO.P,U3,6,MOSI*%
%TO.N,MOSI*%
X65223920Y-35747797D03*
%TO.P,U3,7,MISO*%
%TO.N,MISO*%
X67763920Y-38287797D03*
%TO.P,U3,8,IRQ*%
%TO.N,GND*%
X67763920Y-35747797D03*
%TD*%
D15*
%TO.P,S3,1,BATT+*%
%TO.N,Net-(S3-BATT+)*%
X86110000Y-52012000D03*
%TO.P,S3,2,GND*%
%TO.N,GND*%
X86110000Y-49980000D03*
%TD*%
D16*
%TO.P,IC1,1,OUT1*%
%TO.N,Motor +*%
X83159600Y-38684200D03*
%TO.P,IC1,2,VCC_1*%
%TO.N,VCC*%
X81889600Y-38684200D03*
%TO.P,IC1,3,VCC_2*%
X80619600Y-38684200D03*
%TO.P,IC1,4,FIN*%
%TO.N,Motor Forward*%
X79349600Y-38684200D03*
%TO.P,IC1,5,RIN*%
%TO.N,Motor Reverse*%
X79349600Y-44584200D03*
%TO.P,IC1,6,VREF*%
%TO.N,Motor Speed*%
X80619600Y-44584200D03*
%TO.P,IC1,7,OUT2*%
%TO.N,Motor -*%
X81889600Y-44584200D03*
%TO.P,IC1,8,GND*%
%TO.N,GND*%
X83159600Y-44584200D03*
%TD*%
D12*
%TO.P,C3,1,1*%
%TO.N,VR_OUT*%
X63627000Y-43885600D03*
%TO.P,C3,2,2*%
%TO.N,GND*%
X63627000Y-42265600D03*
%TD*%
D17*
%TO.P,U1,1,BOOT0*%
%TO.N,unconnected-(U1A-BOOT0-Pad1)*%
X71957593Y-46770272D03*
%TO.P,U1,2,PF0-OSC_IN*%
%TO.N,unconnected-(U1A-PF0-OSC_IN-Pad2)*%
X71957593Y-46120272D03*
%TO.P,U1,3,PF1-OSC_OUT*%
%TO.N,unconnected-(U1A-PF1-OSC_OUT-Pad3)*%
X71957593Y-45470272D03*
%TO.P,U1,4,NRST*%
%TO.N,RST*%
X71957593Y-44820272D03*
%TO.P,U1,5,VDDA*%
%TO.N,VR_OUT*%
X71957593Y-44170272D03*
%TO.P,U1,6,PA0*%
%TO.N,Motor Reverse*%
X71957593Y-43520272D03*
%TO.P,U1,7,PA1*%
%TO.N,Motor Forward*%
X71957593Y-42870272D03*
%TO.P,U1,8,PA2*%
%TO.N,unconnected-(U1A-PA2-Pad8)*%
X71957593Y-42220272D03*
%TO.P,U1,9,PA3*%
%TO.N,unconnected-(U1A-PA3-Pad9)*%
X71957593Y-41570272D03*
%TO.P,U1,10,PA4*%
%TO.N,PWM*%
X71957593Y-40920272D03*
%TO.P,U1,11,PA5*%
%TO.N,SCK*%
X66081593Y-40920272D03*
%TO.P,U1,12,PA6*%
%TO.N,MISO*%
X66081593Y-41570272D03*
%TO.P,U1,13,PA7*%
%TO.N,MOSI*%
X66081593Y-42220272D03*
%TO.P,U1,14,PB1*%
%TO.N,unconnected-(U1A-PB1-Pad14)*%
X66081593Y-42870272D03*
%TO.P,U1,15,VSS*%
%TO.N,GND*%
X66081593Y-43520272D03*
%TO.P,U1,16,VDD*%
%TO.N,VR_OUT*%
X66081593Y-44170272D03*
%TO.P,U1,17,PA9*%
%TO.N,Motor Speed*%
X66081593Y-44820272D03*
%TO.P,U1,18,PA10*%
%TO.N,unconnected-(U1A-PA10-Pad18)*%
X66081593Y-45470272D03*
%TO.P,U1,19,PA13*%
%TO.N,SYS_SWDIO*%
X66081593Y-46120272D03*
%TO.P,U1,20,PA14*%
%TO.N,SYS_SWCLK*%
X66081593Y-46770272D03*
%TD*%
D12*
%TO.P,C4,1,1*%
%TO.N,VR_OUT*%
X74803000Y-45333400D03*
%TO.P,C4,2,2*%
%TO.N,GND*%
X74803000Y-43713400D03*
%TD*%
D18*
%TO.P,IC2,1,VIN*%
%TO.N,VCC*%
X69088000Y-51176000D03*
%TO.P,IC2,2,GND*%
%TO.N,GND*%
X69088000Y-50226000D03*
%TO.P,IC2,3,EN*%
%TO.N,unconnected-(IC2-EN-Pad3)*%
X69088000Y-49276000D03*
%TO.P,IC2,4,NC*%
%TO.N,unconnected-(IC2-NC-Pad4)*%
X66588000Y-49276000D03*
%TO.P,IC2,5,VOUT*%
%TO.N,VR_OUT*%
X66588000Y-51176000D03*
%TD*%
D19*
%TO.P,S1,1,1*%
%TO.N,VCC*%
X77443517Y-51874862D03*
%TO.P,S1,2,2*%
%TO.N,Net-(BT1-+)*%
X79443517Y-51874862D03*
%TO.P,S1,3,3*%
%TO.N,Net-(S3-BATT+)*%
X81443517Y-51874862D03*
D20*
%TO.P,S1,4*%
%TO.N,N/C*%
X75343517Y-51874862D03*
%TO.P,S1,5*%
X83543517Y-51874862D03*
%TD*%
D21*
%TO.N,PWM*%
X59461400Y-41478200D03*
X73520265Y-40021520D03*
%TO.N,SYS_SWDIO*%
X68720000Y-45690000D03*
X67800000Y-42700000D03*
%TO.N,SYS_SWCLK*%
X69710000Y-46280000D03*
X69260500Y-42840000D03*
%TO.N,Motor Forward*%
X76276200Y-40055800D03*
X78992640Y-40620812D03*
%TO.N,Motor Reverse*%
X76247654Y-41054895D03*
X79108428Y-41613585D03*
%TO.N,Motor Speed*%
X63500000Y-46736000D03*
X80619600Y-47574200D03*
%TO.N,GND*%
X75742800Y-42367200D03*
X72775806Y-49682142D03*
X83489800Y-46165100D03*
X86110000Y-48000000D03*
X63087710Y-49610485D03*
%TO.N,RST*%
X73638567Y-46525827D03*
%TD*%
D22*
%TO.N,Net-(BT1-+)*%
X80238805Y-49660000D02*
X79443517Y-50455288D01*
X79443517Y-50455288D02*
X79443517Y-51874862D01*
X86251605Y-45720000D02*
X86251605Y-46168923D01*
X82760528Y-49660000D02*
X80238805Y-49660000D01*
X86251605Y-46168923D02*
X82760528Y-49660000D01*
%TO.N,VR_OUT*%
X73639872Y-44170272D02*
X74803000Y-45333400D01*
X61393920Y-36997797D02*
X61393920Y-39723480D01*
X63627000Y-43885600D02*
X61645800Y-43885600D01*
X62743879Y-51226200D02*
X64490600Y-51226200D01*
X76123800Y-35229800D02*
X71058328Y-40295272D01*
X61976000Y-50458321D02*
X62743879Y-51226200D01*
X73981636Y-48110564D02*
X76758800Y-45333400D01*
X61976000Y-46456600D02*
X61976000Y-50458321D01*
X66081593Y-44170272D02*
X63911672Y-44170272D01*
X60274200Y-44754800D02*
X61976000Y-46456600D01*
X61645800Y-43885600D02*
X60330600Y-43885600D01*
X64490600Y-51226200D02*
X66537800Y-51226200D01*
X76504800Y-35229800D02*
X76123800Y-35229800D01*
X60274200Y-43942000D02*
X60274200Y-44754800D01*
X74803000Y-45333400D02*
X76758800Y-45333400D01*
X62004364Y-48110564D02*
X73981636Y-48110564D01*
X61393920Y-39723480D02*
X60274200Y-40843200D01*
X70060000Y-41289679D02*
X70060000Y-44100544D01*
X69990272Y-44170272D02*
X66081593Y-44170272D01*
X71957593Y-44170272D02*
X72969571Y-44170272D01*
X70060000Y-44100544D02*
X70129728Y-44170272D01*
X73052311Y-44170272D02*
X73639872Y-44170272D01*
X70060000Y-44100544D02*
X69990272Y-44170272D01*
X60274200Y-40843200D02*
X60274200Y-43942000D01*
X60143920Y-35747797D02*
X61393920Y-36997797D01*
X71058328Y-40295272D02*
X71054407Y-40295272D01*
X70129728Y-44170272D02*
X71957593Y-44170272D01*
X71054407Y-40295272D02*
X70060000Y-41289679D01*
X63911672Y-44170272D02*
X63627000Y-43885600D01*
X60330600Y-43885600D02*
X60274200Y-43942000D01*
X66537800Y-51226200D02*
X66588000Y-51176000D01*
%TO.N,Motor +*%
X83159600Y-38430200D02*
X84505800Y-37084000D01*
X83159600Y-38684200D02*
X83159600Y-38430200D01*
X84505800Y-37084000D02*
X85852000Y-37084000D01*
%TO.N,Motor -*%
X83947000Y-46964600D02*
X84531200Y-46380400D01*
X84531200Y-41452800D02*
X85852000Y-40132000D01*
X81889600Y-44584200D02*
X81889600Y-45999400D01*
X82854800Y-46964600D02*
X83947000Y-46964600D01*
X81889600Y-45999400D02*
X82854800Y-46964600D01*
X84531200Y-46380400D02*
X84531200Y-41452800D01*
D23*
%TO.N,PWM*%
X73520265Y-40021520D02*
X73520265Y-40493269D01*
X73093262Y-40920272D02*
X71957593Y-40920272D01*
X59461400Y-46507400D02*
X59791600Y-46837600D01*
X59461400Y-41478200D02*
X59461400Y-46507400D01*
X73520265Y-40493269D02*
X73093262Y-40920272D01*
%TO.N,SCK*%
X66081593Y-39145470D02*
X66081593Y-40920272D01*
X65223920Y-38287797D02*
X66081593Y-39145470D01*
%TO.N,MISO*%
X67763920Y-41383102D02*
X67763920Y-38287797D01*
X67576750Y-41570272D02*
X67763920Y-41383102D01*
X66081593Y-41570272D02*
X67576750Y-41570272D01*
%TO.N,MOSI*%
X65044093Y-41015693D02*
X65044093Y-41919536D01*
X65344829Y-42220272D02*
X66081593Y-42220272D01*
X64008000Y-39979600D02*
X65044093Y-41015693D01*
X64008000Y-36963717D02*
X64008000Y-39979600D01*
X65223920Y-35747797D02*
X64008000Y-36963717D01*
X65044093Y-41919536D02*
X65344829Y-42220272D01*
%TO.N,SYS_SWDIO*%
X68860500Y-41685029D02*
X67845529Y-42700000D01*
X68860500Y-40532181D02*
X68860500Y-41685029D01*
X71424800Y-37967880D02*
X68860500Y-40532181D01*
X68289728Y-46120272D02*
X66081593Y-46120272D01*
X71424800Y-35229800D02*
X71424800Y-37967880D01*
X67845529Y-42700000D02*
X67800000Y-42700000D01*
X68720000Y-45690000D02*
X68289728Y-46120272D01*
%TO.N,SYS_SWCLK*%
X73964800Y-35229800D02*
X73964800Y-35993566D01*
X73964800Y-35993566D02*
X69260500Y-40697866D01*
X69219728Y-46770272D02*
X66081593Y-46770272D01*
X69260500Y-40697866D02*
X69260500Y-42840000D01*
X69710000Y-46280000D02*
X69219728Y-46770272D01*
D22*
%TO.N,VCC*%
X65202951Y-54533800D02*
X60046751Y-49377600D01*
X70942200Y-51658000D02*
X70942200Y-54356000D01*
X77948391Y-37901009D02*
X77948391Y-51369988D01*
X81889600Y-38684200D02*
X81889600Y-37261800D01*
X81737200Y-37109400D02*
X79719800Y-37109400D01*
X76246392Y-54533800D02*
X71120000Y-54533800D01*
X77443517Y-53336675D02*
X76246392Y-54533800D01*
X69088000Y-51176000D02*
X70460200Y-51176000D01*
X81889600Y-37261800D02*
X81737200Y-37109400D01*
X79719800Y-37109400D02*
X80619600Y-38009200D01*
X70460200Y-51176000D02*
X70942200Y-51658000D01*
X77443517Y-51874862D02*
X77443517Y-53336675D01*
X60046751Y-49377600D02*
X59791600Y-49377600D01*
X77948391Y-51369988D02*
X77443517Y-51874862D01*
X78740000Y-37109400D02*
X77948391Y-37901009D01*
X70942200Y-54356000D02*
X71120000Y-54533800D01*
X79719800Y-37109400D02*
X78740000Y-37109400D01*
X80619600Y-38009200D02*
X80619600Y-38684200D01*
X71120000Y-54533800D02*
X65202951Y-54533800D01*
%TO.N,Net-(S3-BATT+)*%
X82430880Y-54132074D02*
X83989926Y-54132074D01*
X83989926Y-54132074D02*
X86110000Y-52012000D01*
X81443517Y-51874862D02*
X81443517Y-53144711D01*
X81443517Y-53144711D02*
X82430880Y-54132074D01*
D23*
%TO.N,Motor Forward*%
X75565000Y-40055800D02*
X72750528Y-42870272D01*
X78992640Y-40620812D02*
X79349600Y-40263852D01*
X76276200Y-40055800D02*
X75565000Y-40055800D01*
X72750528Y-42870272D02*
X71957593Y-42870272D01*
X79349600Y-40263852D02*
X79349600Y-38684200D01*
%TO.N,Motor Reverse*%
X72695093Y-43520272D02*
X71957593Y-43520272D01*
X79108428Y-41613585D02*
X79349600Y-41854757D01*
X76247654Y-41054895D02*
X75160470Y-41054895D01*
X75160470Y-41054895D02*
X72695093Y-43520272D01*
X79349600Y-41854757D02*
X79349600Y-44584200D01*
%TO.N,Motor Speed*%
X65116303Y-44820272D02*
X66081593Y-44820272D01*
X63500000Y-46736000D02*
X63500000Y-46436575D01*
X80619600Y-47574200D02*
X80619600Y-44584200D01*
X63500000Y-46436575D02*
X65116303Y-44820272D01*
D22*
%TO.N,GND*%
X75285600Y-42367200D02*
X74803000Y-42849800D01*
X69088000Y-50226000D02*
X70754200Y-50226000D01*
X76327000Y-42367200D02*
X76758800Y-42799000D01*
X66081593Y-43520272D02*
X64881672Y-43520272D01*
X75742800Y-42367200D02*
X75285600Y-42367200D01*
X62683920Y-41322520D02*
X62683920Y-41227480D01*
X64881672Y-43520272D02*
X64643000Y-43281600D01*
X86110000Y-49980000D02*
X86110000Y-48000000D01*
X75742800Y-42367200D02*
X76327000Y-42367200D01*
X62683920Y-41227480D02*
X62683920Y-38287797D01*
D24*
X63091995Y-49606200D02*
X63087710Y-49610485D01*
X72419948Y-50038000D02*
X72775806Y-49682142D01*
D22*
X74803000Y-42849800D02*
X74803000Y-43713400D01*
X83159600Y-44584200D02*
X83159600Y-45834900D01*
D24*
X64490600Y-49606200D02*
X63091995Y-49606200D01*
D22*
X70754200Y-50226000D02*
X70942200Y-50038000D01*
X63627000Y-42265600D02*
X62683920Y-41322520D01*
X83159600Y-45834900D02*
X83489800Y-46165100D01*
X76758800Y-42799000D02*
X76758800Y-43713400D01*
X64643000Y-43281600D02*
X63627000Y-42265600D01*
D24*
X70942200Y-50038000D02*
X72419948Y-50038000D01*
D22*
X61645800Y-42265600D02*
X62683920Y-41227480D01*
D23*
%TO.N,RST*%
X72888446Y-44820272D02*
X73638567Y-45570393D01*
X71957593Y-44820272D02*
X72888446Y-44820272D01*
X73638567Y-45570393D02*
X73638567Y-46525827D01*
%TD*%
%TA.AperFunction,Conductor*%
%TO.N,VCC*%
G36*
X83656962Y-37203805D02*
G01*
X83693186Y-37253115D01*
X83693508Y-37314300D01*
X83669198Y-37354206D01*
X83243703Y-37779703D01*
X83189186Y-37807481D01*
X83173699Y-37808700D01*
X82789852Y-37808700D01*
X82789851Y-37808700D01*
X82789841Y-37808701D01*
X82731372Y-37820332D01*
X82731366Y-37820334D01*
X82665051Y-37864645D01*
X82665044Y-37864652D01*
X82636680Y-37907101D01*
X82588630Y-37944980D01*
X82527491Y-37947380D01*
X82476618Y-37913387D01*
X82472050Y-37907099D01*
X82419840Y-37828961D01*
X82419837Y-37828958D01*
X82337148Y-37773707D01*
X82337146Y-37773706D01*
X82264224Y-37759200D01*
X82014601Y-37759200D01*
X82014600Y-37759201D01*
X82014600Y-39609198D01*
X82014601Y-39609200D01*
X82264223Y-39609200D01*
X82264224Y-39609199D01*
X82337146Y-39594693D01*
X82337148Y-39594692D01*
X82419837Y-39539441D01*
X82419840Y-39539438D01*
X82472050Y-39461300D01*
X82520100Y-39423420D01*
X82581238Y-39421018D01*
X82632112Y-39455010D01*
X82636681Y-39461299D01*
X82665048Y-39503752D01*
X82731369Y-39548067D01*
X82775831Y-39556911D01*
X82789841Y-39559698D01*
X82789846Y-39559698D01*
X82789852Y-39559700D01*
X82789853Y-39559700D01*
X83529347Y-39559700D01*
X83529348Y-39559700D01*
X83587831Y-39548067D01*
X83654152Y-39503752D01*
X83698467Y-39437431D01*
X83710100Y-39378948D01*
X83710100Y-38487097D01*
X83729007Y-38428907D01*
X83739090Y-38417101D01*
X83991814Y-38164377D01*
X84046327Y-38136602D01*
X84106759Y-38146173D01*
X84150024Y-38189438D01*
X84160813Y-38234053D01*
X84170865Y-41249737D01*
X84166021Y-41280658D01*
X84162450Y-41291649D01*
X84156505Y-41306002D01*
X84145555Y-41327491D01*
X84145552Y-41327501D01*
X84141777Y-41351330D01*
X84138153Y-41366424D01*
X84130699Y-41389367D01*
X84130698Y-41462262D01*
X84130700Y-41462288D01*
X84130700Y-45722262D01*
X84111793Y-45780453D01*
X84062293Y-45816417D01*
X84001107Y-45816417D01*
X83953158Y-45782530D01*
X83942334Y-45768424D01*
X83918082Y-45736818D01*
X83918077Y-45736814D01*
X83918076Y-45736813D01*
X83792638Y-45640562D01*
X83659481Y-45585407D01*
X83612955Y-45545671D01*
X83598671Y-45486176D01*
X83622086Y-45429648D01*
X83642366Y-45411627D01*
X83654152Y-45403752D01*
X83698467Y-45337431D01*
X83710100Y-45278948D01*
X83710100Y-43889452D01*
X83698467Y-43830969D01*
X83654152Y-43764648D01*
X83654148Y-43764645D01*
X83587833Y-43720334D01*
X83587831Y-43720333D01*
X83587828Y-43720332D01*
X83587827Y-43720332D01*
X83529358Y-43708701D01*
X83529348Y-43708700D01*
X82789852Y-43708700D01*
X82789851Y-43708700D01*
X82789841Y-43708701D01*
X82731372Y-43720332D01*
X82731366Y-43720334D01*
X82665051Y-43764645D01*
X82665045Y-43764651D01*
X82620734Y-43830966D01*
X82617003Y-43839976D01*
X82614515Y-43838945D01*
X82591799Y-43879507D01*
X82536234Y-43905121D01*
X82476224Y-43893183D01*
X82434693Y-43848252D01*
X82431301Y-43837814D01*
X82428467Y-43830972D01*
X82428467Y-43830969D01*
X82384152Y-43764648D01*
X82384148Y-43764645D01*
X82317833Y-43720334D01*
X82317831Y-43720333D01*
X82317828Y-43720332D01*
X82317827Y-43720332D01*
X82259358Y-43708701D01*
X82259348Y-43708700D01*
X81519852Y-43708700D01*
X81519851Y-43708700D01*
X81519841Y-43708701D01*
X81461372Y-43720332D01*
X81461366Y-43720334D01*
X81395051Y-43764645D01*
X81395045Y-43764651D01*
X81350734Y-43830966D01*
X81347003Y-43839976D01*
X81344515Y-43838945D01*
X81321799Y-43879507D01*
X81266234Y-43905121D01*
X81206224Y-43893183D01*
X81164693Y-43848252D01*
X81161301Y-43837814D01*
X81158467Y-43830972D01*
X81158467Y-43830969D01*
X81114152Y-43764648D01*
X81114148Y-43764645D01*
X81047833Y-43720334D01*
X81047831Y-43720333D01*
X81047828Y-43720332D01*
X81047827Y-43720332D01*
X80989358Y-43708701D01*
X80989348Y-43708700D01*
X80249852Y-43708700D01*
X80249851Y-43708700D01*
X80249841Y-43708701D01*
X80191372Y-43720332D01*
X80191366Y-43720334D01*
X80125051Y-43764645D01*
X80125045Y-43764651D01*
X80080734Y-43830966D01*
X80077003Y-43839976D01*
X80074515Y-43838945D01*
X80051799Y-43879507D01*
X79996234Y-43905121D01*
X79936224Y-43893183D01*
X79894693Y-43848252D01*
X79891301Y-43837814D01*
X79888467Y-43830972D01*
X79888467Y-43830969D01*
X79844152Y-43764648D01*
X79844148Y-43764645D01*
X79777833Y-43720334D01*
X79777831Y-43720333D01*
X79777828Y-43720332D01*
X79777827Y-43720332D01*
X79729784Y-43710775D01*
X79676401Y-43680878D01*
X79650786Y-43625312D01*
X79650100Y-43613678D01*
X79650100Y-41919925D01*
X79652331Y-41906252D01*
X79651105Y-41906081D01*
X79652371Y-41896998D01*
X79652373Y-41896993D01*
X79652252Y-41894380D01*
X79659681Y-41851923D01*
X79693472Y-41770347D01*
X79714110Y-41613585D01*
X79693472Y-41456823D01*
X79665531Y-41389367D01*
X79632965Y-41310746D01*
X79632965Y-41310745D01*
X79536714Y-41185308D01*
X79536713Y-41185307D01*
X79536710Y-41185303D01*
X79536705Y-41185299D01*
X79536704Y-41185298D01*
X79476590Y-41139171D01*
X79441934Y-41088746D01*
X79443536Y-41027582D01*
X79458315Y-41000362D01*
X79517176Y-40923653D01*
X79577684Y-40777574D01*
X79598322Y-40620812D01*
X79583189Y-40505866D01*
X79594339Y-40445706D01*
X79608184Y-40426245D01*
X79609516Y-40424785D01*
X79613065Y-40415621D01*
X79623711Y-40395427D01*
X79625436Y-40392909D01*
X79629257Y-40387332D01*
X79636556Y-40356295D01*
X79638580Y-40349760D01*
X79650100Y-40320025D01*
X79650100Y-40310200D01*
X79652729Y-40287535D01*
X79654979Y-40277971D01*
X79650575Y-40246398D01*
X79650100Y-40239551D01*
X79650100Y-39654721D01*
X79669007Y-39596530D01*
X79718507Y-39560566D01*
X79729773Y-39557626D01*
X79777831Y-39548067D01*
X79844152Y-39503752D01*
X79872519Y-39461298D01*
X79920567Y-39423420D01*
X79981705Y-39421018D01*
X80032579Y-39455011D01*
X80037149Y-39461300D01*
X80089359Y-39539438D01*
X80089362Y-39539441D01*
X80172051Y-39594692D01*
X80172053Y-39594693D01*
X80244975Y-39609199D01*
X80244977Y-39609200D01*
X80494599Y-39609200D01*
X80494600Y-39609199D01*
X80744600Y-39609199D01*
X80744601Y-39609200D01*
X80994223Y-39609200D01*
X80994224Y-39609199D01*
X81067146Y-39594693D01*
X81067148Y-39594692D01*
X81149837Y-39539441D01*
X81149840Y-39539438D01*
X81172284Y-39505849D01*
X81220334Y-39467969D01*
X81281472Y-39465567D01*
X81332346Y-39499559D01*
X81336916Y-39505849D01*
X81359359Y-39539438D01*
X81359362Y-39539441D01*
X81442051Y-39594692D01*
X81442053Y-39594693D01*
X81514975Y-39609199D01*
X81514977Y-39609200D01*
X81764599Y-39609200D01*
X81764600Y-39609198D01*
X81764600Y-38809201D01*
X81764599Y-38809200D01*
X80744601Y-38809200D01*
X80744600Y-38809201D01*
X80744600Y-39609199D01*
X80494600Y-39609199D01*
X80494600Y-39609198D01*
X80494600Y-37759201D01*
X80494599Y-37759200D01*
X80744600Y-37759200D01*
X80744600Y-38559199D01*
X80744601Y-38559200D01*
X81764599Y-38559200D01*
X81764600Y-38559199D01*
X81764600Y-37759201D01*
X81764599Y-37759200D01*
X81514975Y-37759200D01*
X81442053Y-37773706D01*
X81442051Y-37773707D01*
X81359362Y-37828958D01*
X81359358Y-37828962D01*
X81336915Y-37862551D01*
X81288865Y-37900430D01*
X81227727Y-37902832D01*
X81176853Y-37868839D01*
X81172285Y-37862551D01*
X81149841Y-37828962D01*
X81149837Y-37828958D01*
X81067148Y-37773707D01*
X81067146Y-37773706D01*
X80994224Y-37759200D01*
X80744600Y-37759200D01*
X80494599Y-37759200D01*
X80244975Y-37759200D01*
X80172053Y-37773706D01*
X80172051Y-37773707D01*
X80089362Y-37828958D01*
X80089358Y-37828962D01*
X80037148Y-37907100D01*
X79989098Y-37944979D01*
X79927960Y-37947381D01*
X79877086Y-37913388D01*
X79872518Y-37907100D01*
X79844154Y-37864651D01*
X79844152Y-37864648D01*
X79841014Y-37862551D01*
X79777833Y-37820334D01*
X79777831Y-37820333D01*
X79777828Y-37820332D01*
X79777827Y-37820332D01*
X79719358Y-37808701D01*
X79719348Y-37808700D01*
X78979852Y-37808700D01*
X78979851Y-37808700D01*
X78979841Y-37808701D01*
X78921372Y-37820332D01*
X78921366Y-37820334D01*
X78855051Y-37864645D01*
X78855045Y-37864651D01*
X78810734Y-37930966D01*
X78810732Y-37930972D01*
X78799101Y-37989441D01*
X78799100Y-37989453D01*
X78799100Y-39378946D01*
X78799101Y-39378958D01*
X78810732Y-39437427D01*
X78810734Y-39437433D01*
X78826681Y-39461299D01*
X78855048Y-39503752D01*
X78921369Y-39548067D01*
X78969416Y-39557624D01*
X79022798Y-39587520D01*
X79048414Y-39643085D01*
X79049100Y-39654721D01*
X79049100Y-39920876D01*
X79030193Y-39979067D01*
X78980693Y-40015031D01*
X78963022Y-40019029D01*
X78835881Y-40035767D01*
X78835873Y-40035769D01*
X78689801Y-40096274D01*
X78689800Y-40096274D01*
X78564363Y-40192525D01*
X78564353Y-40192535D01*
X78468102Y-40317972D01*
X78468102Y-40317973D01*
X78407597Y-40464045D01*
X78407595Y-40464053D01*
X78386958Y-40620811D01*
X78386958Y-40620812D01*
X78407595Y-40777570D01*
X78407597Y-40777578D01*
X78468102Y-40923650D01*
X78468102Y-40923651D01*
X78547851Y-41027582D01*
X78564358Y-41049094D01*
X78624480Y-41095227D01*
X78659134Y-41145649D01*
X78657533Y-41206813D01*
X78642753Y-41234034D01*
X78583890Y-41310745D01*
X78583890Y-41310746D01*
X78523385Y-41456818D01*
X78523383Y-41456826D01*
X78502746Y-41613584D01*
X78502746Y-41613585D01*
X78523383Y-41770343D01*
X78523385Y-41770351D01*
X78583890Y-41916423D01*
X78583890Y-41916424D01*
X78680141Y-42041861D01*
X78680146Y-42041867D01*
X78805587Y-42138121D01*
X78951666Y-42198629D01*
X78963020Y-42200123D01*
X79018243Y-42226460D01*
X79047441Y-42280229D01*
X79049100Y-42298276D01*
X79049100Y-43613678D01*
X79030193Y-43671869D01*
X78980693Y-43707833D01*
X78969416Y-43710775D01*
X78921372Y-43720332D01*
X78921366Y-43720334D01*
X78855051Y-43764645D01*
X78855045Y-43764651D01*
X78810734Y-43830966D01*
X78810732Y-43830972D01*
X78799101Y-43889441D01*
X78799100Y-43889453D01*
X78799100Y-45278946D01*
X78799101Y-45278958D01*
X78807294Y-45320143D01*
X78810733Y-45337431D01*
X78855048Y-45403752D01*
X78921369Y-45448067D01*
X78965831Y-45456911D01*
X78979841Y-45459698D01*
X78979846Y-45459698D01*
X78979852Y-45459700D01*
X78979853Y-45459700D01*
X79719347Y-45459700D01*
X79719348Y-45459700D01*
X79777831Y-45448067D01*
X79844152Y-45403752D01*
X79888467Y-45337431D01*
X79888468Y-45337425D01*
X79892197Y-45328424D01*
X79894684Y-45329454D01*
X79917398Y-45288895D01*
X79972962Y-45263278D01*
X80032972Y-45275214D01*
X80074506Y-45320143D01*
X80077900Y-45330590D01*
X80080732Y-45337427D01*
X80080733Y-45337431D01*
X80125048Y-45403752D01*
X80191369Y-45448067D01*
X80239416Y-45457624D01*
X80292798Y-45487520D01*
X80318414Y-45543085D01*
X80319100Y-45554721D01*
X80319100Y-46907970D01*
X80300193Y-46966161D01*
X80250693Y-47002125D01*
X80223864Y-47006898D01*
X78357085Y-47077917D01*
X78298217Y-47061236D01*
X78260397Y-47013139D01*
X78254340Y-46980923D01*
X78254254Y-46976501D01*
X78065424Y-37314738D01*
X78083191Y-37256192D01*
X78131978Y-37219268D01*
X78163876Y-37213809D01*
X83598676Y-37185205D01*
X83656962Y-37203805D01*
G37*
%TD.AperFunction*%
%TD*%
%TA.AperFunction,Conductor*%
%TO.N,GND*%
G36*
X73448923Y-48528377D02*
G01*
X73474233Y-48572214D01*
X73475352Y-48584175D01*
X73541156Y-54058411D01*
X73524416Y-54106181D01*
X73480886Y-54132016D01*
X73467161Y-54133300D01*
X71416700Y-54133300D01*
X71369134Y-54115987D01*
X71343824Y-54072150D01*
X71342700Y-54059300D01*
X71342700Y-52412500D01*
X71360013Y-52364934D01*
X71403850Y-52339624D01*
X71416700Y-52338500D01*
X71450259Y-52338500D01*
X71450266Y-52338500D01*
X71480019Y-52335710D01*
X71537026Y-52315762D01*
X71605355Y-52291853D01*
X71605355Y-52291852D01*
X71605357Y-52291852D01*
X71712199Y-52212999D01*
X71791052Y-52106157D01*
X71834910Y-51980819D01*
X71837700Y-51951066D01*
X71837700Y-51364934D01*
X71834910Y-51335181D01*
X71834908Y-51335175D01*
X71791053Y-51209844D01*
X71712199Y-51103001D01*
X71712198Y-51103000D01*
X71605355Y-51024146D01*
X71480024Y-50980291D01*
X71480025Y-50980291D01*
X71480020Y-50980290D01*
X71480019Y-50980290D01*
X71450266Y-50977500D01*
X71450260Y-50977500D01*
X70858745Y-50977500D01*
X70811179Y-50960187D01*
X70806419Y-50955826D01*
X70720130Y-50869537D01*
X70720115Y-50869523D01*
X70698541Y-50847949D01*
X70675294Y-50836103D01*
X70665397Y-50830038D01*
X70644289Y-50814703D01*
X70644290Y-50814703D01*
X70637130Y-50812377D01*
X70597242Y-50781212D01*
X70586718Y-50731699D01*
X70610483Y-50687006D01*
X70657416Y-50668044D01*
X70659998Y-50667999D01*
X70867200Y-50667999D01*
X70867200Y-50113000D01*
X71017200Y-50113000D01*
X71017200Y-50667999D01*
X71427891Y-50667999D01*
X71519219Y-50653535D01*
X71519220Y-50653534D01*
X71629293Y-50597448D01*
X71716650Y-50510091D01*
X71772734Y-50400019D01*
X71772735Y-50400018D01*
X71787200Y-50308692D01*
X71787200Y-50113000D01*
X71017200Y-50113000D01*
X70867200Y-50113000D01*
X70097201Y-50113000D01*
X70097201Y-50308691D01*
X70111664Y-50400019D01*
X70111665Y-50400020D01*
X70167751Y-50510093D01*
X70255108Y-50597450D01*
X70329915Y-50635566D01*
X70364437Y-50672586D01*
X70367087Y-50723135D01*
X70336623Y-50763562D01*
X70296320Y-50775500D01*
X69901540Y-50775500D01*
X69853974Y-50758187D01*
X69840012Y-50742613D01*
X69832552Y-50731448D01*
X69823957Y-50725705D01*
X69794029Y-50684885D01*
X69797341Y-50634374D01*
X69803545Y-50623066D01*
X69829296Y-50584527D01*
X69838000Y-50540773D01*
X69838000Y-50301000D01*
X68338001Y-50301000D01*
X68338001Y-50540778D01*
X68346701Y-50584524D01*
X68372455Y-50623067D01*
X68384486Y-50672235D01*
X68362098Y-50717634D01*
X68352042Y-50725705D01*
X68343450Y-50731446D01*
X68343447Y-50731449D01*
X68299133Y-50797767D01*
X68287500Y-50856253D01*
X68287500Y-51495746D01*
X68299133Y-51554232D01*
X68314013Y-51576500D01*
X68343448Y-51620552D01*
X68387560Y-51650027D01*
X68409767Y-51664866D01*
X68409768Y-51664866D01*
X68409769Y-51664867D01*
X68468252Y-51676500D01*
X68468254Y-51676500D01*
X69707746Y-51676500D01*
X69707748Y-51676500D01*
X69766231Y-51664867D01*
X69832552Y-51620552D01*
X69840012Y-51609386D01*
X69880833Y-51579456D01*
X69901540Y-51576500D01*
X69972700Y-51576500D01*
X70020266Y-51593813D01*
X70045576Y-51637650D01*
X70046700Y-51650499D01*
X70046700Y-51951066D01*
X70049490Y-51980819D01*
X70049490Y-51980821D01*
X70049491Y-51980824D01*
X70093346Y-52106155D01*
X70172200Y-52212998D01*
X70172201Y-52212999D01*
X70279044Y-52291853D01*
X70404375Y-52335708D01*
X70404381Y-52335710D01*
X70434134Y-52338500D01*
X70467700Y-52338500D01*
X70515266Y-52355813D01*
X70540576Y-52399650D01*
X70541700Y-52412500D01*
X70541700Y-54059300D01*
X70524387Y-54106866D01*
X70480550Y-54132176D01*
X70467700Y-54133300D01*
X65399496Y-54133300D01*
X65351930Y-54115987D01*
X65347170Y-54111626D01*
X63580192Y-52344648D01*
X63558800Y-52298772D01*
X63558528Y-52293486D01*
X63550635Y-51776903D01*
X63567219Y-51729079D01*
X63610664Y-51703103D01*
X63660643Y-51711130D01*
X63684166Y-51731832D01*
X63720597Y-51781195D01*
X63720601Y-51781199D01*
X63827444Y-51860053D01*
X63952775Y-51903908D01*
X63952781Y-51903910D01*
X63982534Y-51906700D01*
X63982541Y-51906700D01*
X64998659Y-51906700D01*
X64998666Y-51906700D01*
X65028419Y-51903910D01*
X65085426Y-51883962D01*
X65153755Y-51860053D01*
X65153755Y-51860052D01*
X65153757Y-51860052D01*
X65260599Y-51781199D01*
X65339452Y-51674357D01*
X65339453Y-51674353D01*
X65342045Y-51669452D01*
X65343657Y-51670304D01*
X65370839Y-51637080D01*
X65408634Y-51626700D01*
X65830201Y-51626700D01*
X65871314Y-51639172D01*
X65909767Y-51664866D01*
X65909768Y-51664866D01*
X65909769Y-51664867D01*
X65968252Y-51676500D01*
X65968254Y-51676500D01*
X67207746Y-51676500D01*
X67207748Y-51676500D01*
X67266231Y-51664867D01*
X67332552Y-51620552D01*
X67376867Y-51554231D01*
X67388500Y-51495748D01*
X67388500Y-50856252D01*
X67376867Y-50797769D01*
X67373555Y-50792813D01*
X67354010Y-50763562D01*
X67332552Y-50731448D01*
X67310343Y-50716608D01*
X67266232Y-50687133D01*
X67266233Y-50687133D01*
X67236989Y-50681316D01*
X67207748Y-50675500D01*
X65968252Y-50675500D01*
X65939010Y-50681316D01*
X65909767Y-50687133D01*
X65843449Y-50731447D01*
X65843447Y-50731449D01*
X65802444Y-50792813D01*
X65761622Y-50822744D01*
X65740916Y-50825700D01*
X65408634Y-50825700D01*
X65361068Y-50808387D01*
X65343103Y-50782388D01*
X65342045Y-50782948D01*
X65339453Y-50778045D01*
X65329963Y-50765187D01*
X65260599Y-50671201D01*
X65260598Y-50671200D01*
X65153755Y-50592346D01*
X65028424Y-50548491D01*
X65028425Y-50548491D01*
X65028420Y-50548490D01*
X65028419Y-50548490D01*
X64998666Y-50545700D01*
X63982534Y-50545700D01*
X63952781Y-50548490D01*
X63952779Y-50548490D01*
X63952775Y-50548491D01*
X63827444Y-50592346D01*
X63720601Y-50671200D01*
X63720600Y-50671201D01*
X63667711Y-50742864D01*
X63625536Y-50770855D01*
X63575235Y-50765187D01*
X63540345Y-50728513D01*
X63534180Y-50700052D01*
X63533805Y-50675500D01*
X63523632Y-50009798D01*
X63540216Y-49961975D01*
X63583661Y-49935999D01*
X63633639Y-49944026D01*
X63663557Y-49975074D01*
X63716151Y-50078293D01*
X63803508Y-50165650D01*
X63913580Y-50221734D01*
X63913581Y-50221735D01*
X64004908Y-50236199D01*
X64415600Y-50236199D01*
X64415600Y-50236198D01*
X64565599Y-50236198D01*
X64565600Y-50236199D01*
X64976291Y-50236199D01*
X65067619Y-50221735D01*
X65067620Y-50221734D01*
X65177693Y-50165648D01*
X65265050Y-50078291D01*
X65321134Y-49968219D01*
X65321135Y-49968218D01*
X65335600Y-49876892D01*
X65335600Y-49681200D01*
X64565600Y-49681200D01*
X64565599Y-50236198D01*
X64415600Y-50236198D01*
X64415600Y-49595746D01*
X65787500Y-49595746D01*
X65799133Y-49654232D01*
X65813665Y-49675980D01*
X65843448Y-49720552D01*
X65864122Y-49734366D01*
X65909767Y-49764866D01*
X65909768Y-49764866D01*
X65909769Y-49764867D01*
X65968252Y-49776500D01*
X65968254Y-49776500D01*
X67207746Y-49776500D01*
X67207748Y-49776500D01*
X67266231Y-49764867D01*
X67332552Y-49720552D01*
X67376867Y-49654231D01*
X67388500Y-49595748D01*
X67388500Y-49595746D01*
X68287500Y-49595746D01*
X68299133Y-49654232D01*
X68313665Y-49675980D01*
X68343448Y-49720552D01*
X68352039Y-49726292D01*
X68381970Y-49767113D01*
X68378659Y-49817624D01*
X68372455Y-49828932D01*
X68346703Y-49867472D01*
X68338000Y-49911226D01*
X68338000Y-50151000D01*
X69837999Y-50151000D01*
X69837999Y-49963000D01*
X70097200Y-49963000D01*
X70867200Y-49963000D01*
X70867200Y-49408000D01*
X71017200Y-49408000D01*
X71017200Y-49963000D01*
X71787199Y-49963000D01*
X71787199Y-49767308D01*
X71772735Y-49675980D01*
X71772734Y-49675979D01*
X71716648Y-49565906D01*
X71629291Y-49478549D01*
X71519219Y-49422465D01*
X71519218Y-49422464D01*
X71427893Y-49408000D01*
X71017200Y-49408000D01*
X70867200Y-49408000D01*
X70456508Y-49408000D01*
X70365180Y-49422464D01*
X70365179Y-49422465D01*
X70255106Y-49478551D01*
X70167749Y-49565908D01*
X70111665Y-49675980D01*
X70111664Y-49675981D01*
X70097200Y-49767307D01*
X70097200Y-49963000D01*
X69837999Y-49963000D01*
X69837999Y-49911221D01*
X69829298Y-49867474D01*
X69803545Y-49828933D01*
X69791513Y-49779764D01*
X69813901Y-49734366D01*
X69823949Y-49726300D01*
X69832552Y-49720552D01*
X69876867Y-49654231D01*
X69888500Y-49595748D01*
X69888500Y-48956252D01*
X69876867Y-48897769D01*
X69832552Y-48831448D01*
X69810343Y-48816608D01*
X69766232Y-48787133D01*
X69766233Y-48787133D01*
X69736989Y-48781316D01*
X69707748Y-48775500D01*
X68468252Y-48775500D01*
X68439010Y-48781316D01*
X68409767Y-48787133D01*
X68343449Y-48831447D01*
X68343447Y-48831449D01*
X68299133Y-48897767D01*
X68287500Y-48956253D01*
X68287500Y-49595746D01*
X67388500Y-49595746D01*
X67388500Y-48956252D01*
X67376867Y-48897769D01*
X67332552Y-48831448D01*
X67310343Y-48816608D01*
X67266232Y-48787133D01*
X67266233Y-48787133D01*
X67236989Y-48781316D01*
X67207748Y-48775500D01*
X65968252Y-48775500D01*
X65939010Y-48781316D01*
X65909767Y-48787133D01*
X65843449Y-48831447D01*
X65843447Y-48831449D01*
X65799133Y-48897767D01*
X65787500Y-48956253D01*
X65787500Y-49595746D01*
X64415600Y-49595746D01*
X64415600Y-48976200D01*
X64565600Y-48976200D01*
X64565600Y-49531200D01*
X65335599Y-49531200D01*
X65335599Y-49335508D01*
X65321135Y-49244180D01*
X65321134Y-49244179D01*
X65265048Y-49134106D01*
X65177691Y-49046749D01*
X65067619Y-48990665D01*
X65067618Y-48990664D01*
X64976293Y-48976200D01*
X64565600Y-48976200D01*
X64415600Y-48976200D01*
X64004908Y-48976200D01*
X63913580Y-48990664D01*
X63913579Y-48990665D01*
X63803506Y-49046751D01*
X63716149Y-49134108D01*
X63660065Y-49244180D01*
X63660063Y-49244185D01*
X63658959Y-49251157D01*
X63634417Y-49295429D01*
X63587159Y-49313567D01*
X63539299Y-49297085D01*
X63513230Y-49253695D01*
X63511880Y-49240717D01*
X63501879Y-48586193D01*
X63518463Y-48538369D01*
X63561908Y-48512393D01*
X63575870Y-48511064D01*
X73401357Y-48511064D01*
X73448923Y-48528377D01*
G37*
%TD.AperFunction*%
%TD*%
M02*
