%TF.GenerationSoftware,KiCad,Pcbnew,7.0.5*%
%TF.CreationDate,2024-01-14T18:06:27+01:00*%
%TF.ProjectId,rc_hotwheels,72635f68-6f74-4776-9865-656c732e6b69,rev?*%
%TF.SameCoordinates,Original*%
%TF.FileFunction,Legend,Top*%
%TF.FilePolarity,Positive*%
%FSLAX46Y46*%
G04 Gerber Fmt 4.6, Leading zero omitted, Abs format (unit mm)*
G04 Created by KiCad (PCBNEW 7.0.5) date 2024-01-14 18:06:27*
%MOMM*%
%LPD*%
G01*
G04 APERTURE LIST*
%ADD10C,0.160000*%
%ADD11C,0.150000*%
%ADD12C,0.254000*%
%ADD13C,0.120000*%
%ADD14C,0.200000*%
G04 APERTURE END LIST*
D10*
%TO.C,C6*%
X76600067Y-47064060D02*
X76561971Y-47111680D01*
X76561971Y-47111680D02*
X76447686Y-47159299D01*
X76447686Y-47159299D02*
X76371495Y-47159299D01*
X76371495Y-47159299D02*
X76257209Y-47111680D01*
X76257209Y-47111680D02*
X76181019Y-47016441D01*
X76181019Y-47016441D02*
X76142924Y-46921203D01*
X76142924Y-46921203D02*
X76104828Y-46730727D01*
X76104828Y-46730727D02*
X76104828Y-46587870D01*
X76104828Y-46587870D02*
X76142924Y-46397394D01*
X76142924Y-46397394D02*
X76181019Y-46302156D01*
X76181019Y-46302156D02*
X76257209Y-46206918D01*
X76257209Y-46206918D02*
X76371495Y-46159299D01*
X76371495Y-46159299D02*
X76447686Y-46159299D01*
X76447686Y-46159299D02*
X76561971Y-46206918D01*
X76561971Y-46206918D02*
X76600067Y-46254537D01*
X77285781Y-46159299D02*
X77133400Y-46159299D01*
X77133400Y-46159299D02*
X77057209Y-46206918D01*
X77057209Y-46206918D02*
X77019114Y-46254537D01*
X77019114Y-46254537D02*
X76942924Y-46397394D01*
X76942924Y-46397394D02*
X76904828Y-46587870D01*
X76904828Y-46587870D02*
X76904828Y-46968822D01*
X76904828Y-46968822D02*
X76942924Y-47064060D01*
X76942924Y-47064060D02*
X76981019Y-47111680D01*
X76981019Y-47111680D02*
X77057209Y-47159299D01*
X77057209Y-47159299D02*
X77209590Y-47159299D01*
X77209590Y-47159299D02*
X77285781Y-47111680D01*
X77285781Y-47111680D02*
X77323876Y-47064060D01*
X77323876Y-47064060D02*
X77361971Y-46968822D01*
X77361971Y-46968822D02*
X77361971Y-46730727D01*
X77361971Y-46730727D02*
X77323876Y-46635489D01*
X77323876Y-46635489D02*
X77285781Y-46587870D01*
X77285781Y-46587870D02*
X77209590Y-46540251D01*
X77209590Y-46540251D02*
X77057209Y-46540251D01*
X77057209Y-46540251D02*
X76981019Y-46587870D01*
X76981019Y-46587870D02*
X76942924Y-46635489D01*
X76942924Y-46635489D02*
X76904828Y-46730727D01*
%TO.C,C5*%
X61487067Y-41351860D02*
X61448971Y-41399480D01*
X61448971Y-41399480D02*
X61334686Y-41447099D01*
X61334686Y-41447099D02*
X61258495Y-41447099D01*
X61258495Y-41447099D02*
X61144209Y-41399480D01*
X61144209Y-41399480D02*
X61068019Y-41304241D01*
X61068019Y-41304241D02*
X61029924Y-41209003D01*
X61029924Y-41209003D02*
X60991828Y-41018527D01*
X60991828Y-41018527D02*
X60991828Y-40875670D01*
X60991828Y-40875670D02*
X61029924Y-40685194D01*
X61029924Y-40685194D02*
X61068019Y-40589956D01*
X61068019Y-40589956D02*
X61144209Y-40494718D01*
X61144209Y-40494718D02*
X61258495Y-40447099D01*
X61258495Y-40447099D02*
X61334686Y-40447099D01*
X61334686Y-40447099D02*
X61448971Y-40494718D01*
X61448971Y-40494718D02*
X61487067Y-40542337D01*
X62210876Y-40447099D02*
X61829924Y-40447099D01*
X61829924Y-40447099D02*
X61791828Y-40923289D01*
X61791828Y-40923289D02*
X61829924Y-40875670D01*
X61829924Y-40875670D02*
X61906114Y-40828051D01*
X61906114Y-40828051D02*
X62096590Y-40828051D01*
X62096590Y-40828051D02*
X62172781Y-40875670D01*
X62172781Y-40875670D02*
X62210876Y-40923289D01*
X62210876Y-40923289D02*
X62248971Y-41018527D01*
X62248971Y-41018527D02*
X62248971Y-41256622D01*
X62248971Y-41256622D02*
X62210876Y-41351860D01*
X62210876Y-41351860D02*
X62172781Y-41399480D01*
X62172781Y-41399480D02*
X62096590Y-41447099D01*
X62096590Y-41447099D02*
X61906114Y-41447099D01*
X61906114Y-41447099D02*
X61829924Y-41399480D01*
X61829924Y-41399480D02*
X61791828Y-41351860D01*
%TO.C,C1*%
X70834267Y-53445060D02*
X70796171Y-53492680D01*
X70796171Y-53492680D02*
X70681886Y-53540299D01*
X70681886Y-53540299D02*
X70605695Y-53540299D01*
X70605695Y-53540299D02*
X70491409Y-53492680D01*
X70491409Y-53492680D02*
X70415219Y-53397441D01*
X70415219Y-53397441D02*
X70377124Y-53302203D01*
X70377124Y-53302203D02*
X70339028Y-53111727D01*
X70339028Y-53111727D02*
X70339028Y-52968870D01*
X70339028Y-52968870D02*
X70377124Y-52778394D01*
X70377124Y-52778394D02*
X70415219Y-52683156D01*
X70415219Y-52683156D02*
X70491409Y-52587918D01*
X70491409Y-52587918D02*
X70605695Y-52540299D01*
X70605695Y-52540299D02*
X70681886Y-52540299D01*
X70681886Y-52540299D02*
X70796171Y-52587918D01*
X70796171Y-52587918D02*
X70834267Y-52635537D01*
X71596171Y-53540299D02*
X71139028Y-53540299D01*
X71367600Y-53540299D02*
X71367600Y-52540299D01*
X71367600Y-52540299D02*
X71291409Y-52683156D01*
X71291409Y-52683156D02*
X71215219Y-52778394D01*
X71215219Y-52778394D02*
X71139028Y-52826013D01*
%TO.C,SM1*%
X58907993Y-54254594D02*
X59022279Y-54302213D01*
X59022279Y-54302213D02*
X59212755Y-54302213D01*
X59212755Y-54302213D02*
X59288946Y-54254594D01*
X59288946Y-54254594D02*
X59327041Y-54206974D01*
X59327041Y-54206974D02*
X59365136Y-54111736D01*
X59365136Y-54111736D02*
X59365136Y-54016498D01*
X59365136Y-54016498D02*
X59327041Y-53921260D01*
X59327041Y-53921260D02*
X59288946Y-53873641D01*
X59288946Y-53873641D02*
X59212755Y-53826022D01*
X59212755Y-53826022D02*
X59060374Y-53778403D01*
X59060374Y-53778403D02*
X58984184Y-53730784D01*
X58984184Y-53730784D02*
X58946089Y-53683165D01*
X58946089Y-53683165D02*
X58907993Y-53587927D01*
X58907993Y-53587927D02*
X58907993Y-53492689D01*
X58907993Y-53492689D02*
X58946089Y-53397451D01*
X58946089Y-53397451D02*
X58984184Y-53349832D01*
X58984184Y-53349832D02*
X59060374Y-53302213D01*
X59060374Y-53302213D02*
X59250851Y-53302213D01*
X59250851Y-53302213D02*
X59365136Y-53349832D01*
X59707994Y-54302213D02*
X59707994Y-53302213D01*
X59707994Y-53302213D02*
X59974660Y-54016498D01*
X59974660Y-54016498D02*
X60241327Y-53302213D01*
X60241327Y-53302213D02*
X60241327Y-54302213D01*
X61041327Y-54302213D02*
X60584184Y-54302213D01*
X60812756Y-54302213D02*
X60812756Y-53302213D01*
X60812756Y-53302213D02*
X60736565Y-53445070D01*
X60736565Y-53445070D02*
X60660375Y-53540308D01*
X60660375Y-53540308D02*
X60584184Y-53587927D01*
%TO.C,C2*%
X64433467Y-53013260D02*
X64395371Y-53060880D01*
X64395371Y-53060880D02*
X64281086Y-53108499D01*
X64281086Y-53108499D02*
X64204895Y-53108499D01*
X64204895Y-53108499D02*
X64090609Y-53060880D01*
X64090609Y-53060880D02*
X64014419Y-52965641D01*
X64014419Y-52965641D02*
X63976324Y-52870403D01*
X63976324Y-52870403D02*
X63938228Y-52679927D01*
X63938228Y-52679927D02*
X63938228Y-52537070D01*
X63938228Y-52537070D02*
X63976324Y-52346594D01*
X63976324Y-52346594D02*
X64014419Y-52251356D01*
X64014419Y-52251356D02*
X64090609Y-52156118D01*
X64090609Y-52156118D02*
X64204895Y-52108499D01*
X64204895Y-52108499D02*
X64281086Y-52108499D01*
X64281086Y-52108499D02*
X64395371Y-52156118D01*
X64395371Y-52156118D02*
X64433467Y-52203737D01*
X64738228Y-52203737D02*
X64776324Y-52156118D01*
X64776324Y-52156118D02*
X64852514Y-52108499D01*
X64852514Y-52108499D02*
X65042990Y-52108499D01*
X65042990Y-52108499D02*
X65119181Y-52156118D01*
X65119181Y-52156118D02*
X65157276Y-52203737D01*
X65157276Y-52203737D02*
X65195371Y-52298975D01*
X65195371Y-52298975D02*
X65195371Y-52394213D01*
X65195371Y-52394213D02*
X65157276Y-52537070D01*
X65157276Y-52537070D02*
X64700133Y-53108499D01*
X64700133Y-53108499D02*
X65195371Y-53108499D01*
%TO.C,M1*%
X85342381Y-35704299D02*
X85342381Y-34704299D01*
X85342381Y-34704299D02*
X85609047Y-35418584D01*
X85609047Y-35418584D02*
X85875714Y-34704299D01*
X85875714Y-34704299D02*
X85875714Y-35704299D01*
X86675714Y-35704299D02*
X86218571Y-35704299D01*
X86447143Y-35704299D02*
X86447143Y-34704299D01*
X86447143Y-34704299D02*
X86370952Y-34847156D01*
X86370952Y-34847156D02*
X86294762Y-34942394D01*
X86294762Y-34942394D02*
X86218571Y-34990013D01*
%TO.C,BT1*%
X84658094Y-45142073D02*
X84705713Y-45027787D01*
X84705713Y-45027787D02*
X84753332Y-44989692D01*
X84753332Y-44989692D02*
X84848570Y-44951596D01*
X84848570Y-44951596D02*
X84991427Y-44951596D01*
X84991427Y-44951596D02*
X85086665Y-44989692D01*
X85086665Y-44989692D02*
X85134285Y-45027787D01*
X85134285Y-45027787D02*
X85181904Y-45103977D01*
X85181904Y-45103977D02*
X85181904Y-45408739D01*
X85181904Y-45408739D02*
X84181904Y-45408739D01*
X84181904Y-45408739D02*
X84181904Y-45142073D01*
X84181904Y-45142073D02*
X84229523Y-45065882D01*
X84229523Y-45065882D02*
X84277142Y-45027787D01*
X84277142Y-45027787D02*
X84372380Y-44989692D01*
X84372380Y-44989692D02*
X84467618Y-44989692D01*
X84467618Y-44989692D02*
X84562856Y-45027787D01*
X84562856Y-45027787D02*
X84610475Y-45065882D01*
X84610475Y-45065882D02*
X84658094Y-45142073D01*
X84658094Y-45142073D02*
X84658094Y-45408739D01*
X84181904Y-44723025D02*
X84181904Y-44265882D01*
X85181904Y-44494454D02*
X84181904Y-44494454D01*
X85181904Y-43580168D02*
X85181904Y-44037311D01*
X85181904Y-43808739D02*
X84181904Y-43808739D01*
X84181904Y-43808739D02*
X84324761Y-43884930D01*
X84324761Y-43884930D02*
X84419999Y-43961120D01*
X84419999Y-43961120D02*
X84467618Y-44037311D01*
D11*
%TO.C,U3*%
X59176996Y-39917510D02*
X59176996Y-40727033D01*
X59176996Y-40727033D02*
X59224615Y-40822271D01*
X59224615Y-40822271D02*
X59272234Y-40869891D01*
X59272234Y-40869891D02*
X59367472Y-40917510D01*
X59367472Y-40917510D02*
X59557948Y-40917510D01*
X59557948Y-40917510D02*
X59653186Y-40869891D01*
X59653186Y-40869891D02*
X59700805Y-40822271D01*
X59700805Y-40822271D02*
X59748424Y-40727033D01*
X59748424Y-40727033D02*
X59748424Y-39917510D01*
X60129377Y-39917510D02*
X60748424Y-39917510D01*
X60748424Y-39917510D02*
X60415091Y-40298462D01*
X60415091Y-40298462D02*
X60557948Y-40298462D01*
X60557948Y-40298462D02*
X60653186Y-40346081D01*
X60653186Y-40346081D02*
X60700805Y-40393700D01*
X60700805Y-40393700D02*
X60748424Y-40488938D01*
X60748424Y-40488938D02*
X60748424Y-40727033D01*
X60748424Y-40727033D02*
X60700805Y-40822271D01*
X60700805Y-40822271D02*
X60653186Y-40869891D01*
X60653186Y-40869891D02*
X60557948Y-40917510D01*
X60557948Y-40917510D02*
X60272234Y-40917510D01*
X60272234Y-40917510D02*
X60176996Y-40869891D01*
X60176996Y-40869891D02*
X60129377Y-40822271D01*
D10*
%TO.C,S3*%
X85555127Y-54016333D02*
X85669413Y-54063952D01*
X85669413Y-54063952D02*
X85859889Y-54063952D01*
X85859889Y-54063952D02*
X85936080Y-54016333D01*
X85936080Y-54016333D02*
X85974175Y-53968713D01*
X85974175Y-53968713D02*
X86012270Y-53873475D01*
X86012270Y-53873475D02*
X86012270Y-53778237D01*
X86012270Y-53778237D02*
X85974175Y-53682999D01*
X85974175Y-53682999D02*
X85936080Y-53635380D01*
X85936080Y-53635380D02*
X85859889Y-53587761D01*
X85859889Y-53587761D02*
X85707508Y-53540142D01*
X85707508Y-53540142D02*
X85631318Y-53492523D01*
X85631318Y-53492523D02*
X85593223Y-53444904D01*
X85593223Y-53444904D02*
X85555127Y-53349666D01*
X85555127Y-53349666D02*
X85555127Y-53254428D01*
X85555127Y-53254428D02*
X85593223Y-53159190D01*
X85593223Y-53159190D02*
X85631318Y-53111571D01*
X85631318Y-53111571D02*
X85707508Y-53063952D01*
X85707508Y-53063952D02*
X85897985Y-53063952D01*
X85897985Y-53063952D02*
X86012270Y-53111571D01*
X86278937Y-53063952D02*
X86774175Y-53063952D01*
X86774175Y-53063952D02*
X86507509Y-53444904D01*
X86507509Y-53444904D02*
X86621794Y-53444904D01*
X86621794Y-53444904D02*
X86697985Y-53492523D01*
X86697985Y-53492523D02*
X86736080Y-53540142D01*
X86736080Y-53540142D02*
X86774175Y-53635380D01*
X86774175Y-53635380D02*
X86774175Y-53873475D01*
X86774175Y-53873475D02*
X86736080Y-53968713D01*
X86736080Y-53968713D02*
X86697985Y-54016333D01*
X86697985Y-54016333D02*
X86621794Y-54063952D01*
X86621794Y-54063952D02*
X86393223Y-54063952D01*
X86393223Y-54063952D02*
X86317032Y-54016333D01*
X86317032Y-54016333D02*
X86278937Y-53968713D01*
D12*
%TO.C,IC1*%
X81828918Y-42873962D02*
X80558918Y-42873962D01*
X81707965Y-41543485D02*
X81768442Y-41603961D01*
X81768442Y-41603961D02*
X81828918Y-41785390D01*
X81828918Y-41785390D02*
X81828918Y-41906342D01*
X81828918Y-41906342D02*
X81768442Y-42087771D01*
X81768442Y-42087771D02*
X81647489Y-42208723D01*
X81647489Y-42208723D02*
X81526537Y-42269200D01*
X81526537Y-42269200D02*
X81284632Y-42329676D01*
X81284632Y-42329676D02*
X81103203Y-42329676D01*
X81103203Y-42329676D02*
X80861299Y-42269200D01*
X80861299Y-42269200D02*
X80740346Y-42208723D01*
X80740346Y-42208723D02*
X80619394Y-42087771D01*
X80619394Y-42087771D02*
X80558918Y-41906342D01*
X80558918Y-41906342D02*
X80558918Y-41785390D01*
X80558918Y-41785390D02*
X80619394Y-41603961D01*
X80619394Y-41603961D02*
X80679870Y-41543485D01*
X81828918Y-40333961D02*
X81828918Y-41059676D01*
X81828918Y-40696819D02*
X80558918Y-40696819D01*
X80558918Y-40696819D02*
X80740346Y-40817771D01*
X80740346Y-40817771D02*
X80861299Y-40938723D01*
X80861299Y-40938723D02*
X80921775Y-41059676D01*
D10*
%TO.C,C3*%
X63468267Y-41303860D02*
X63430171Y-41351480D01*
X63430171Y-41351480D02*
X63315886Y-41399099D01*
X63315886Y-41399099D02*
X63239695Y-41399099D01*
X63239695Y-41399099D02*
X63125409Y-41351480D01*
X63125409Y-41351480D02*
X63049219Y-41256241D01*
X63049219Y-41256241D02*
X63011124Y-41161003D01*
X63011124Y-41161003D02*
X62973028Y-40970527D01*
X62973028Y-40970527D02*
X62973028Y-40827670D01*
X62973028Y-40827670D02*
X63011124Y-40637194D01*
X63011124Y-40637194D02*
X63049219Y-40541956D01*
X63049219Y-40541956D02*
X63125409Y-40446718D01*
X63125409Y-40446718D02*
X63239695Y-40399099D01*
X63239695Y-40399099D02*
X63315886Y-40399099D01*
X63315886Y-40399099D02*
X63430171Y-40446718D01*
X63430171Y-40446718D02*
X63468267Y-40494337D01*
X63734933Y-40399099D02*
X64230171Y-40399099D01*
X64230171Y-40399099D02*
X63963505Y-40780051D01*
X63963505Y-40780051D02*
X64077790Y-40780051D01*
X64077790Y-40780051D02*
X64153981Y-40827670D01*
X64153981Y-40827670D02*
X64192076Y-40875289D01*
X64192076Y-40875289D02*
X64230171Y-40970527D01*
X64230171Y-40970527D02*
X64230171Y-41208622D01*
X64230171Y-41208622D02*
X64192076Y-41303860D01*
X64192076Y-41303860D02*
X64153981Y-41351480D01*
X64153981Y-41351480D02*
X64077790Y-41399099D01*
X64077790Y-41399099D02*
X63849219Y-41399099D01*
X63849219Y-41399099D02*
X63773028Y-41351480D01*
X63773028Y-41351480D02*
X63734933Y-41303860D01*
D12*
%TO.C,U1*%
X68051973Y-43149590D02*
X68051973Y-44177685D01*
X68051973Y-44177685D02*
X68112450Y-44298637D01*
X68112450Y-44298637D02*
X68172926Y-44359114D01*
X68172926Y-44359114D02*
X68293878Y-44419590D01*
X68293878Y-44419590D02*
X68535783Y-44419590D01*
X68535783Y-44419590D02*
X68656735Y-44359114D01*
X68656735Y-44359114D02*
X68717212Y-44298637D01*
X68717212Y-44298637D02*
X68777688Y-44177685D01*
X68777688Y-44177685D02*
X68777688Y-43149590D01*
X70047688Y-44419590D02*
X69321973Y-44419590D01*
X69684830Y-44419590D02*
X69684830Y-43149590D01*
X69684830Y-43149590D02*
X69563878Y-43331018D01*
X69563878Y-43331018D02*
X69442926Y-43451971D01*
X69442926Y-43451971D02*
X69321973Y-43512447D01*
D10*
%TO.C,C4*%
X74647067Y-47016060D02*
X74608971Y-47063680D01*
X74608971Y-47063680D02*
X74494686Y-47111299D01*
X74494686Y-47111299D02*
X74418495Y-47111299D01*
X74418495Y-47111299D02*
X74304209Y-47063680D01*
X74304209Y-47063680D02*
X74228019Y-46968441D01*
X74228019Y-46968441D02*
X74189924Y-46873203D01*
X74189924Y-46873203D02*
X74151828Y-46682727D01*
X74151828Y-46682727D02*
X74151828Y-46539870D01*
X74151828Y-46539870D02*
X74189924Y-46349394D01*
X74189924Y-46349394D02*
X74228019Y-46254156D01*
X74228019Y-46254156D02*
X74304209Y-46158918D01*
X74304209Y-46158918D02*
X74418495Y-46111299D01*
X74418495Y-46111299D02*
X74494686Y-46111299D01*
X74494686Y-46111299D02*
X74608971Y-46158918D01*
X74608971Y-46158918D02*
X74647067Y-46206537D01*
X75332781Y-46444632D02*
X75332781Y-47111299D01*
X75142305Y-46063680D02*
X74951828Y-46777965D01*
X74951828Y-46777965D02*
X75447067Y-46777965D01*
D12*
%TO.C,IC2*%
X66598237Y-53406318D02*
X66598237Y-52136318D01*
X67928714Y-53285365D02*
X67868238Y-53345842D01*
X67868238Y-53345842D02*
X67686809Y-53406318D01*
X67686809Y-53406318D02*
X67565857Y-53406318D01*
X67565857Y-53406318D02*
X67384428Y-53345842D01*
X67384428Y-53345842D02*
X67263476Y-53224889D01*
X67263476Y-53224889D02*
X67202999Y-53103937D01*
X67202999Y-53103937D02*
X67142523Y-52862032D01*
X67142523Y-52862032D02*
X67142523Y-52680603D01*
X67142523Y-52680603D02*
X67202999Y-52438699D01*
X67202999Y-52438699D02*
X67263476Y-52317746D01*
X67263476Y-52317746D02*
X67384428Y-52196794D01*
X67384428Y-52196794D02*
X67565857Y-52136318D01*
X67565857Y-52136318D02*
X67686809Y-52136318D01*
X67686809Y-52136318D02*
X67868238Y-52196794D01*
X67868238Y-52196794D02*
X67928714Y-52257270D01*
X68412523Y-52257270D02*
X68472999Y-52196794D01*
X68472999Y-52196794D02*
X68593952Y-52136318D01*
X68593952Y-52136318D02*
X68896333Y-52136318D01*
X68896333Y-52136318D02*
X69017285Y-52196794D01*
X69017285Y-52196794D02*
X69077761Y-52257270D01*
X69077761Y-52257270D02*
X69138238Y-52378222D01*
X69138238Y-52378222D02*
X69138238Y-52499175D01*
X69138238Y-52499175D02*
X69077761Y-52680603D01*
X69077761Y-52680603D02*
X68352047Y-53406318D01*
X68352047Y-53406318D02*
X69138238Y-53406318D01*
D13*
%TO.C,U3*%
X58619920Y-39557797D02*
X58619920Y-39557797D01*
X58619920Y-39557797D02*
X58619920Y-34223797D01*
X69287920Y-39557797D02*
X58619920Y-39557797D01*
X69287920Y-39557797D02*
X69287920Y-39557797D01*
X61413920Y-39303797D02*
X61413920Y-39303797D01*
X59127920Y-37017797D02*
X61413920Y-37017797D01*
X61413920Y-37017797D02*
X61413920Y-39303797D01*
X58619920Y-34223797D02*
X69287920Y-34223797D01*
X69287920Y-34223797D02*
X69287920Y-39557797D01*
D14*
%TO.C,IC1*%
X83859600Y-38009200D02*
X83859600Y-39359200D01*
X83754600Y-39709200D02*
X83754600Y-43559200D01*
X78754600Y-39709200D02*
X83754600Y-39709200D01*
X83754600Y-43559200D02*
X78754600Y-43559200D01*
X78754600Y-43559200D02*
X78754600Y-39709200D01*
%TO.C,U1*%
X72694593Y-47345272D02*
X71219593Y-47345272D01*
X70869593Y-47095272D02*
X67169593Y-47095272D01*
X70869593Y-40595272D02*
X70869593Y-47095272D01*
X67169593Y-47095272D02*
X67169593Y-40595272D01*
X67169593Y-40595272D02*
X70869593Y-40595272D01*
%TO.C,IC2*%
X68138000Y-51676000D02*
X67538000Y-51676000D01*
X68138000Y-48776000D02*
X68138000Y-51676000D01*
X67538000Y-51676000D02*
X67538000Y-48776000D01*
X67538000Y-48776000D02*
X68138000Y-48776000D01*
%TD*%
M02*
